<svg id="Layer_1" data-name="Layer 1" xmlns="http://www.w3.org/2000/svg" xmlns:xlink="http://www.w3.org/1999/xlink" viewBox="0 0 64 64"><defs><style>.cls-1{fill:url(#linear-gradient);}.cls-2{fill:url(#linear-gradient-2);}.cls-3{fill:#fff;}</style><linearGradient id="linear-gradient" x1="16.6" y1="57.59" x2="47.79" y2="21.97" gradientUnits="userSpaceOnUse"><stop offset="0" stop-color="#00e17e"/><stop offset="1" stop-color="#76ffa2"/></linearGradient><linearGradient id="linear-gradient-2" x1="36.12" y1="34.88" x2="54.72" y2="4.11" xlink:href="#linear-gradient"/></defs><path class="cls-1" d="M50.53,45.26A30.74,30.74,0,0,1,20.22,19.63a22.83,22.83,0,0,0-8.92,7.84A21.32,21.32,0,0,0,9.14,32c0,.1-.07.2-.1.3A24.17,24.17,0,0,0,49.93,56a22.87,22.87,0,0,0,5.24-11.13A30.8,30.8,0,0,1,50.53,45.26Z"/><path class="cls-2" d="M56.07.32a.39.39,0,0,0-.7-.24C53.68,2.3,52,4.54,50.3,6.73c-2.63,3.33-5.86,6.32-10,7.57-3.6,1.08-7.33,1.39-11,2.15a35.49,35.49,0,0,0-9.09,3.18,30.75,30.75,0,0,0,35,25.28,42.28,42.28,0,0,0,.71-5.39c0-.68.09-1.36.13-2,.33-6.39.06-12.82.06-19.22Z"/><circle class="cls-3" cx="41.04" cy="27.86" r="2.94"/><path class="cls-3" d="M31.55,30.59a8.81,8.81,0,0,0-6.13,14.66.38.38,0,0,1,.1.32l-.56,3a.18.18,0,0,0,.26.19L28,47.41a.4.4,0,0,1,.34,0,8.72,8.72,0,0,0,4.34.76,8.81,8.81,0,0,0-1.14-17.58Z"/></svg>