<?xml version="1.0" encoding="utf-8"?>
<!-- Generator: Adobe Illustrator 24.3.0, SVG Export Plug-In . SVG Version: 6.00 Build 0)  -->
<svg version="1.1" id="Layer_1" xmlns="http://www.w3.org/2000/svg" xmlns:xlink="http://www.w3.org/1999/xlink" x="0px" y="0px"
	 viewBox="0 0 58.42 176.3" style="enable-background:new 0 0 58.42 176.3;" xml:space="preserve">
<style type="text/css">
	.st0{fill:#33DD87;}
</style>
<g>
	<path class="st0" d="M29.17,0c10.66,19.96,19.12,38.31,18.64,59.51c-0.16,7.17-1.49,14.09-5.89,19.75
		c-10.9,14.04-14.63,13.73-25.31,0.33c-4.26-5.35-5.72-11.94-5.99-18.79C9.79,39,18.51,20.23,29.17,0z"/>
	<path class="st0" d="M58.41,176.3c0-26.01,0.01-52.02,0.01-78.03c-0.73-0.53-1.36-1.36-2.25-1.48c-17.97-2.4-35.95-2.4-53.92,0
		C1.36,96.91,0.73,97.74,0,98.27c0,26.01,0.01,52.02,0.01,78.03H58.41z"/>
</g>
</svg>
