<svg id="Layer_1" data-name="Layer 1" xmlns="http://www.w3.org/2000/svg" viewBox="0 0 38.97 29.46"><defs><style>.cls-1{fill:#666;}</style></defs><polygon class="cls-1" points="24.83 17.25 24.83 17.25 24.83 17.25 24.83 17.25 24.83 17.25 24.83 17.25 24.83 17.26 24.83 17.25 24.83 17.25"/><path class="cls-1" d="M14.6,0A14.73,14.73,0,1,0,29.46,14.75,14.76,14.76,0,0,0,14.6,0ZM26.25,17.17a11.55,11.55,0,0,1-5.63,7.73l-.67.35a9.44,9.44,0,0,1-2.78,1,11.75,11.75,0,0,1-2.44.25,9.71,9.71,0,0,1-2.63-.31,8,8,0,0,1-2.42-.85,3,3,0,0,1-.93-.51,7.32,7.32,0,0,1-1.59-1.11A7.64,7.64,0,0,1,5.74,22.3a11.11,11.11,0,0,1-2.47-4.94h0A9.71,9.71,0,0,1,3,14.73a11.75,11.75,0,0,1,.25-2.44,9.44,9.44,0,0,1,1-2.78,1.87,1.87,0,0,1,.35-.67A11.07,11.07,0,0,1,8.84,4.56a1.87,1.87,0,0,1,.67-.35,9.44,9.44,0,0,1,2.78-1A11.75,11.75,0,0,1,14.73,3a9.71,9.71,0,0,1,2.63.31A11.11,11.11,0,0,1,22.3,5.74a7.64,7.64,0,0,1,1.42,1.42,7.32,7.32,0,0,1,1.11,1.59,3,3,0,0,1,.51.93,8,8,0,0,1,.85,2.42,9.71,9.71,0,0,1,.31,2.63,1.08,1.08,0,0,0-.07.61A6.22,6.22,0,0,1,26.25,17.17Z"/><polygon class="cls-1" points="34.34 17.25 34.34 17.25 34.34 17.25 34.34 17.25 34.34 17.25 34.34 17.25 34.34 17.26 34.34 17.25 34.34 17.25"/><path class="cls-1" d="M24.11,0A14.73,14.73,0,1,0,39,14.75,14.76,14.76,0,0,0,24.11,0ZM35.76,17.17a11.55,11.55,0,0,1-5.63,7.73l-.67.35a9.44,9.44,0,0,1-2.78,1,11.75,11.75,0,0,1-2.44.25,9.71,9.71,0,0,1-2.63-.31,8,8,0,0,1-2.42-.85,3,3,0,0,1-.93-.51,7.32,7.32,0,0,1-1.59-1.11,7.64,7.64,0,0,1-1.42-1.42,11.11,11.11,0,0,1-2.47-4.94h0a9.71,9.71,0,0,1-.31-2.63,11.75,11.75,0,0,1,.25-2.44,9.44,9.44,0,0,1,1-2.78,1.87,1.87,0,0,1,.35-.67,11.07,11.07,0,0,1,4.28-4.28A1.87,1.87,0,0,1,19,4.21a9.44,9.44,0,0,1,2.78-1A11.75,11.75,0,0,1,24.24,3a9.71,9.71,0,0,1,2.63.31,11.11,11.11,0,0,1,4.94,2.47,7.64,7.64,0,0,1,1.42,1.42,7.32,7.32,0,0,1,1.11,1.59,3,3,0,0,1,.51.93,8,8,0,0,1,.85,2.42A9.71,9.71,0,0,1,36,14.73a1.08,1.08,0,0,0-.07.61A6.22,6.22,0,0,1,35.76,17.17Z"/></svg>