<?xml version="1.0" encoding="utf-8"?>
<!-- Generator: Adobe Illustrator 24.3.0, SVG Export Plug-In . SVG Version: 6.00 Build 0)  -->
<svg version="1.1" id="Layer_1" xmlns="http://www.w3.org/2000/svg" xmlns:xlink="http://www.w3.org/1999/xlink" x="0px" y="0px"
	 viewBox="0 0 82.17 108.89" style="enable-background:new 0 0 82.17 108.89;" xml:space="preserve">
<style type="text/css">
	.st0{fill:url(#SVGID_1_);}
	.st1{fill:url(#SVGID_2_);}
	.st2{fill:#FFFFFF;}
</style>
<g>
	<linearGradient id="SVGID_1_" gradientUnits="userSpaceOnUse" x1="14.9177" y1="98.0056" x2="67.9226" y2="37.4649">
		<stop  offset="0" style="stop-color:#00E17E"/>
		<stop  offset="1" style="stop-color:#76FFA2"/>
	</linearGradient>
	<path class="st0" d="M72.58,77.05c-25.9,0-47.39-18.85-51.51-43.57C14.99,36.64,9.59,41.01,5.9,46.81
		c-1.53,2.4-2.75,4.99-3.68,7.68c-0.06,0.17-0.11,0.33-0.17,0.5C0.7,59.12,0,63.46,0,67.8c0,22.69,18.4,41.09,41.09,41.09
		c11.55,0,22.73-4.97,30.48-13.53c4.89-5.4,7.51-11.98,8.9-18.91C77.89,76.85,75.26,77.05,72.58,77.05z"/>
	<linearGradient id="SVGID_2_" gradientUnits="userSpaceOnUse" x1="48.0921" y1="59.3945" x2="79.6952" y2="7.0998">
		<stop  offset="0" style="stop-color:#00E17E"/>
		<stop  offset="1" style="stop-color:#76FFA2"/>
	</linearGradient>
	<path class="st1" d="M81.99,0.67c0-0.63-0.81-0.91-1.19-0.4c-2.87,3.77-5.68,7.58-8.61,11.29c-4.47,5.66-9.97,10.74-17,12.86
		c-6.12,1.85-12.46,2.37-18.68,3.67c-5.24,1.09-10.56,2.85-15.44,5.39C25.2,58.2,46.69,77.05,72.58,77.05c2.68,0,5.31-0.2,7.88-0.59
		c0.61-3.01,0.98-6.09,1.21-9.17c0.09-1.16,0.16-2.31,0.22-3.47c0.57-10.86,0.1-21.8,0.1-32.66C81.99,21,81.99,10.83,81.99,0.67z"/>
	<circle class="st2" cx="56.45" cy="47.48" r="4.99"/>
	<path class="st2" d="M40.32,52.11c-7.67,0.39-13.88,6.66-14.19,14.33c-0.17,4.07,1.3,7.79,3.78,10.58
		c0.13,0.15,0.19,0.35,0.16,0.55l-0.94,5.18c-0.04,0.25,0.21,0.44,0.43,0.33l4.75-2.38c0.18-0.09,0.38-0.09,0.56-0.01
		c2.22,1.01,4.73,1.5,7.38,1.3c7.45-0.56,13.42-6.69,13.79-14.15C56.5,58.96,49.2,51.66,40.32,52.11z"/>
</g>
</svg>
